<svg width="44" height="42" viewBox="0 0 44 42" fill="none" xmlns="http://www.w3.org/2000/svg">
<path fill-rule="evenodd" clip-rule="evenodd" d="M7.05999 9.53265C7.24993 9.30097 7.53374 9.16666 7.83332 9.16666H37.7117C38.4568 9.16668 39.1937 9.32285 39.8747 9.62507C40.5558 9.9273 41.166 10.3689 41.666 10.9214C42.1659 11.4738 42.5446 12.1249 42.7775 12.8327C43.0105 13.5405 43.0925 14.2892 43.0184 15.0307L41.7184 28.0307C41.5868 29.3467 40.9709 30.5669 39.9903 31.4543C39.0097 32.3418 37.7343 32.8333 36.4117 32.8333H15.7204C15.7203 32.8333 15.7205 32.8333 15.7204 32.8333C14.4871 32.8337 13.2914 32.4067 12.3376 31.6249C11.3836 30.8431 10.7302 29.7549 10.4884 28.5454C10.4884 28.5454 10.4884 28.5454 10.4884 28.5454L6.85273 10.3627C6.79399 10.069 6.87006 9.76433 7.05999 9.53265ZM9.05307 11.1667L12.4496 28.1533C12.6007 28.9092 13.0091 29.5894 13.6053 30.0781C14.2016 30.5667 14.9487 30.8336 15.7196 30.8333H36.4116C36.4116 30.8333 36.4116 30.8333 36.4116 30.8333C37.2382 30.8333 38.0354 30.5261 38.6482 29.9715C39.2611 29.4168 39.646 28.6542 39.7283 27.8317L41.0283 14.8317C41.0746 14.3683 41.0233 13.9003 40.8778 13.458C40.7322 13.0156 40.4955 12.6086 40.183 12.2633C39.8706 11.918 39.4892 11.6421 39.0635 11.4532C38.6379 11.2643 38.1773 11.1667 37.7117 11.1667C37.7116 11.1667 37.7117 11.1667 37.7117 11.1667H9.05307Z" fill="#F8F8F8"/>
<path fill-rule="evenodd" clip-rule="evenodd" d="M0.333313 1.5C0.333313 0.947715 0.781028 0.5 1.33331 0.5H3.97665C4.68259 0.500019 5.36831 0.735923 5.92483 1.17024C6.48135 1.60456 6.8768 2.21239 7.04834 2.89717L8.80351 9.92434C8.93734 10.4602 8.61146 11.003 8.07564 11.1369C7.53981 11.2707 6.99695 10.9448 6.86312 10.409L5.10829 3.38317C5.10826 3.38305 5.10832 3.38328 5.10829 3.38317C5.04504 3.13102 4.89931 2.90687 4.69436 2.74693C4.48933 2.58692 4.23672 2.50001 3.97665 2.5C3.97664 2.5 3.97666 2.5 3.97665 2.5H1.33331C0.781028 2.5 0.333313 2.05228 0.333313 1.5ZM13.3333 40.5C13.3333 39.9477 13.781 39.5 14.3333 39.5H18.6666C19.2189 39.5 19.6666 39.9477 19.6666 40.5C19.6666 41.0523 19.2189 41.5 18.6666 41.5H14.3333C13.781 41.5 13.3333 41.0523 13.3333 40.5ZM30.6666 40.5C30.6666 39.9477 31.1144 39.5 31.6666 39.5H36C36.5523 39.5 37 39.9477 37 40.5C37 41.0523 36.5523 41.5 36 41.5H31.6666C31.1144 41.5 30.6666 41.0523 30.6666 40.5Z" fill="#F8F8F8"/>
</svg>
