<svg width="41" height="40" viewBox="0 0 41 40" fill="none" xmlns="http://www.w3.org/2000/svg">
<path d="M30.355 25.86C32.7757 22.5567 33.8599 18.4612 33.3907 14.3929C32.9215 10.3245 30.9335 6.58335 27.8244 3.91783C24.7153 1.25231 20.7144 -0.140984 16.6221 0.0166989C12.5298 0.174382 8.64795 1.87141 5.75316 4.76828C2.85837 7.66514 1.16411 11.5482 1.00936 15.6406C0.854603 19.733 2.25076 23.7329 4.91851 26.8401C7.58625 29.9473 11.3288 31.9327 15.3975 32.399C19.4662 32.8653 23.5609 31.7781 26.8625 29.355H26.86C26.935 29.455 27.015 29.55 27.105 29.6425L36.73 39.2675C37.1988 39.7366 37.8347 40.0003 38.4978 40.0005C39.161 40.0007 39.7971 39.7375 40.2662 39.2688C40.7353 38.8 40.999 38.1641 40.9992 37.5009C40.9995 36.8377 40.7363 36.2016 40.2675 35.7325L30.6425 26.1075C30.5531 26.017 30.457 25.9335 30.355 25.8575V25.86ZM31 16.25C31 18.0557 30.6443 19.8437 29.9533 21.5119C29.2623 23.1801 28.2495 24.6959 26.9727 25.9727C25.6959 27.2495 24.1801 28.2623 22.5119 28.9534C20.8437 29.6444 19.0557 30 17.25 30C15.4443 30 13.6563 29.6444 11.9881 28.9534C10.3199 28.2623 8.80407 27.2495 7.52727 25.9727C6.25046 24.6959 5.23764 23.1801 4.54664 21.5119C3.85564 19.8437 3.49999 18.0557 3.49999 16.25C3.49999 12.6033 4.94864 9.10591 7.52727 6.52729C10.1059 3.94866 13.6033 2.50001 17.25 2.50001C20.8967 2.50001 24.3941 3.94866 26.9727 6.52729C29.5513 9.10591 31 12.6033 31 16.25Z" fill="#F8F8F8"/>
</svg>
