<svg xmlns="http://www.w3.org/2000/svg" preserveAspectRatio="none" viewBox="0 0 425.75761 626.84624"><defs><style>.cls-1{fill:#3ab3ce;}.cls-2{fill:#e6e6e6;}.cls-3{fill:#fff;}.cls-4{fill:#035397;}.cls-5{fill:#3f3d56;}.cls-6{fill:#2f2e41;}.cls-7{fill:#ffb6b6;}.cls-8{fill:#ffb8b8;}.cls-9{fill:#cacaca;}</style></defs><title>e3387a9b-6b7d-46c3-a89c-0412e79f7ad1</title><g id="Layer_2" data-name="Layer 2"><g id="e3387a9b-6b7d-46c3-a89c-0412e79f7ad1"><rect class="cls-1" width="296.58448" height="554.51691"/><rect id="b93b1ef9-49b5-4354-905b-d9dddde45a10" class="cls-2" x="0.13318" y="268.20742" width="312.2384" height="234.63949"/><rect id="ef7485f9-8ecd-46d9-949e-abdd8aa9e360" class="cls-3" x="9.06168" y="297.63694" width="294.38144" height="191.32855"/><rect id="b4c2a7ec-beab-40bc-b587-23a202562f78" class="cls-4" y="268" width="312.23841" height="15.56459"/><ellipse id="bd6d3ebf-cb6f-4fcb-b7cd-ad5a287d3324" class="cls-3" cx="9.85787" cy="275.95789" rx="2.45878" ry="2.88505"/><ellipse id="efb1158e-7a7d-4adb-9063-fc7dc50c76d5" class="cls-3" cx="19.18979" cy="275.95789" rx="2.45878" ry="2.88505"/><ellipse id="b51f9e19-f36b-4f29-afd5-008bb0fc20dd" class="cls-3" cx="28.5217" cy="275.95789" rx="2.45878" ry="2.88505"/><rect id="b636d421-4358-445b-b124-1d058e78c733" class="cls-2" x="45.28178" y="313.37428" width="57.57662" height="73.29507"/><rect id="ab9c902d-64a9-4a2b-a9ec-6dc7022c80f6" class="cls-2" x="127.46359" y="313.37428" width="57.57662" height="73.29507"/><rect id="f4a232af-026e-479b-8040-5c62e5965d9e" class="cls-2" x="209.64494" y="313.37428" width="57.57664" height="73.29507"/><rect id="ada16aa4-f84d-4851-87ee-a2852d96226a" class="cls-2" x="45.28178" y="399.93591" width="57.57662" height="73.29507"/><rect id="ebfcbe07-3b81-4d69-a4f5-6a8318d20e8d" class="cls-2" x="127.46359" y="399.93591" width="57.57662" height="73.29507"/><rect id="ead16b6d-d132-49a9-a42f-1f570e523a46" class="cls-2" x="209.64494" y="399.93591" width="57.57664" height="73.29507"/><path id="ab8ff6e3-f37e-4992-8347-ee905fdba816" class="cls-3" d="M141.37989,418.77312l10.5199-4.88021,1.22334,24.40043s2.20161,7.46351,1.46791,10.33435c0,0,.48914,4.88021-.73419,5.16716s-4.64926.86148-4.89141.574a2.51694,2.51694,0,0,1-.24457-1.14845s-2.44667,2.00937-2.69124,4.30569c0,0-10.27534,3.73175-10.51991.287s5.13742-6.31562,5.13742-6.31562l4.15915-7.46351Z"/><path id="e647835b-1773-4993-9de9-376235a5ef39" class="cls-3" d="M163.644,418.77312l10.51846-4.88021,1.22334,24.40043s2.20162,7.46351,1.46791,10.33435c0,0,.48914,4.88021-.73419,5.16716s-4.64924.86148-4.89139.574a2.517,2.517,0,0,1-.24458-1.14845s-2.44667,2.00937-2.69124,4.30569c0,0-10.27533,3.73175-10.51989.287s5.13742-6.31562,5.13742-6.31562l4.15915-7.46351Z"/><path id="ee50e840-b8e9-4cc0-9b2e-64e12816c6e5" class="cls-5" d="M164.67167,324.54737s-2.23988,7.34416.35547,10.656l-2.16383,8.72448s7.68774,27.0616,5.49144,30.84164c0,0-8.20012,4.81087-24.60228-1.71841l6.66247-30.32624-.95165-12.80058,1.31778-6.01388,2.92854-.341s-1.757,7.73172,1.46451,8.93472,6.36414-8.74151,6.36414-8.74151Z"/><path id="b668efb4-5504-4326-941b-9be143c4d030" class="cls-3" d="M61.22532,371.95546l2.82685,1.357,13.49155-20.80564,4.24,24.42374,2.82684-.60292c1.81321-21.0568,3.29322-42.53413,1.47759-52.69231l-10.472-.52791-4.75386,17.79274-2.313,12.06128Z"/><path id="b699d661-049e-451c-8a7e-64343ac1c335" class="cls-3" d="M232.79094,323.46882s-3.85791,6.29289-3.66953,8.83243S231.756,376.243,231.756,376.243l5.73988.3313-1.695-29.80969,1.41124-8.05962,3.48163,37.538,7.05719.22106-6.30411-48.68893-1.22334-4.30569Z"/><path id="a4f25674-ecb7-42aa-ae9a-d508200b11eb" class="cls-5" d="M254.595,424.84948a7.625,7.625,0,0,0-4.47587-2.64354c.04841-.18013-5.14226-1.43884-5.23041-1.1797l-1.95705-1.82922-6.01351,3.66356-3.37894-2.69923-1.56962.65349c.06394-.325-4.8725.6785-4.8725.6785-.94293.03979-2.14738.1091-3.49566.23072-4.72143.42619-5.08512,14.77471-5.08512,14.77471a16.88538,16.88538,0,0,1,6.83487-1.67919l1.27613,17.1614a58.01565,58.01565,0,0,1,20.58262,1.9889l3.346-13.49044,7.79185-3.55558S257.01647,428.25847,254.595,424.84948Z"/><path id="b6d7fb25-d94e-4ba0-9382-3f72a4c565e4" class="cls-3" d="M87.38706,416.67737a6.282,6.282,0,0,0-3.68792-2.17814,17.24486,17.24486,0,0,0-4.31024-.97172l-1.6127-1.507-4.95388,3.01859-2.78422-2.22359-1.29308.53871c.05279-.26765-4.01483.5586-4.01483.5586-.77487.033-1.76961.08978-2.88011.19036-3.89035.35119-4.18965,12.17265-4.18965,12.17265a13.9138,13.9138,0,0,1,5.63189-1.3837l1.0514,34.61488a47.7872,47.7872,0,0,1,16.95766,1.63885L84.058,429.55637l6.42032-2.92937S89.38187,419.48741,87.38706,416.67737Z"/><path id="abb48a01-b3b6-4bc9-9e6f-5cc93133d8eb" class="cls-6" d="M362.95645,425.8911h27.60493V408.55923c0-8.94445-6.17957-16.19536-13.80246-16.19536s-13.80247,7.25091-13.80247,16.19536Z"/><path id="f1b40e10-dbea-4491-93e9-bf21ee1afe95" class="cls-7" d="M350.63351,618.72608h-5.937l-2.8249-26.87406h8.76286Z"/><path id="f19e2682-d3fb-40a9-8809-be7b68a78ac9" class="cls-6" d="M352.14791,616.45135H340.45455c-4.115.00031-7.45086,3.91427-7.45139,8.74266v.28413h19.14475Z"/><path id="b3618d44-3857-42e4-aed2-10e127155f21" class="cls-7" d="M421.60916,609.42883l-5.17037,3.42488-13.71917-21.77052,7.63108-5.05467Z"/><path id="a172411a-a77d-4e4f-ac70-c8342021cfb1" class="cls-6" d="M421.97481,606.57447l-10.18236,6.743h0c-3.58358,2.37417-4.8485,7.70739-2.82538,11.91241l.11912.24719,16.67142-11.043Z"/><path id="bd1532c7-07e2-44c0-82ff-fc8e0d37942d" class="cls-6" d="M383.66257,497.87407l.45814,2.68785s1.37444,1.61273.68722,2.41909-.45814,4.56993-.45814,4.56993c.38454,6.86227,8.02626,45.42427,9.393,52.95542,0,0,10.5383,8.06414,18.7854,23.92366s8.47522,19.89188,8.47522,19.89188l-9.16191,4.57051-22.90725-32.52594s-6.41451-4.56993-8.70573-8.60174-16.49711-45.6982-16.49711-45.6982l-8.02,43.54736s.45814,15.85951-1.60349,26.07453a127.33034,127.33034,0,0,0-2.29072,19.62308l-10.76736-1.34393s.68722-38.171,1.83258-42.2034c0,0-4.811-46.504,4.811-65.05193L355.448,478.455l7.59475-3.43Z"/><path id="e2a54528-859f-4f0e-9aca-6130773a8d3b" class="cls-8" d="M376.9013,396.60078c-14.4548.28982-14.45238,25.51878,0,25.80573C391.35516,422.11671,391.35321,396.88777,376.9013,396.60078Z"/><path id="aeace49c-5333-476f-965d-52da8fac2318" class="cls-6" d="M365.77651,408.83427h2.45684l.6688-1.96277-.33463,1.96277h13.43682l-.43588-4.1068,3.2661,4.1068h3.25787V406.609c.00434-7.23026-4.98737-13.09568-11.14936-13.10079s-11.16077,5.852-11.16511,13.08227h0v.01852Z"/><path id="aa5a3aa9-e50b-4b43-b42d-0c1415925835" class="cls-5" d="M361.9956,429.94051l27.31437.2597-5.77089,68.71208s-31.94375-1.97811-31.96361-13.41885l2.99248-10.1667Z"/><path id="aca4d347-909c-4b66-b72e-6bb1477aee43" class="cls-7" d="M390.48388,505.55464a5.98,5.98,0,0,1,.64563-7.49754,4.5807,4.5807,0,0,1,.662-.5274l-1.187-12.09651,6.08907-2.63957,1.47178,17.11084a5.78883,5.78883,0,0,1-2.18785,7.12854A4.13891,4.13891,0,0,1,390.48388,505.55464Z"/><path id="eab38d24-ad2d-4cbe-aaaa-db975580c866" class="cls-5" d="M385.71841,436.11975l3.594-5.89454s2.45974-.64043,5.36552,3.33738,4.60082,53.70041,4.60082,53.70041l-10.65453,2.84129-6.29587-35.232Z"/><polygon class="cls-3" points="325.513 490.041 326.305 534.215 350.678 549.328 395.062 540.028 396.153 494.109 368.015 482.484 325.513 490.041"/><path class="cls-9" d="M350.61406,549.80508l-24.693-15.31148-.80463-44.84457,42.93679-7.63343.09151.03768L396.54948,493.789,395.443,540.4121Zm-23.92444-15.868L350.741,548.85072l43.94142-9.20707,1.07306-45.21426-27.77762-11.47681-42.06876,7.47916Z"/><polygon class="cls-9" points="350.134 502.018 350.038 501.973 325.369 490.465 325.656 489.616 350.231 501.08 396.099 493.657 396.206 494.562 350.134 502.018"/><polygon class="cls-9" points="349.793 501.555 350.571 501.544 351.067 549.322 350.288 549.333 349.793 501.555"/><polygon class="cls-9" points="347.016 499.731 338.124 495.501 380.933 487.497 389.826 491.727 347.016 499.731"/><polygon class="cls-9" points="325.359 503.694 325.667 502.855 335.98 508.066 335.673 508.904 325.359 503.694"/><polygon class="cls-4" points="330.029 518.764 330.337 517.925 340.651 523.136 340.343 523.975 330.029 518.764"/><polygon class="cls-3" points="189.91 551.413 190.702 595.587 215.074 610.7 259.459 601.4 260.549 555.481 232.412 543.856 189.91 551.413"/><path class="cls-9" d="M215.01088,611.177l-24.693-15.31148-.80463-44.84456,42.93679-7.63344.09151.03767,28.40472,11.73576L259.83978,601.784Zm-23.92444-15.86805,24.0514,14.91369,43.94141-9.20707,1.07306-45.21426-27.77762-11.47681-42.06875,7.47916Z"/><polygon class="cls-9" points="214.531 563.39 214.435 563.345 189.766 551.836 190.053 550.988 214.627 562.452 260.496 555.029 260.603 555.934 214.531 563.39"/><polygon class="cls-9" points="214.19 562.927 214.968 562.915 215.464 610.694 214.685 610.705 214.19 562.927"/><polygon class="cls-9" points="209.259 560.063 202.52 556.873 245.33 548.869 252.068 552.059 209.259 560.063"/><polygon class="cls-9" points="189.756 565.066 190.064 564.227 200.377 569.437 200.069 570.276 189.756 565.066"/><polygon class="cls-4" points="194.426 580.136 194.734 579.297 205.048 584.508 204.74 585.347 194.426 580.136"/><polygon class="cls-4" points="232.251 557.469 233.171 608.749 261.463 626.292 312.987 615.497 314.252 562.192 281.59 548.697 232.251 557.469"/><path class="cls-5" d="M261.38936,626.84624,232.72482,609.072l-.934-52.05729,49.84266-8.86121.10624.04377,32.97326,13.62329-1.28447,54.12187ZM233.61691,608.426l27.9198,17.31238,51.00889-10.68789,1.24565-52.48643L281.546,549.24133l-48.835,8.68206Z"/><polygon class="cls-5" points="260.832 571.373 260.721 571.321 232.084 557.962 232.418 556.976 260.944 570.284 314.19 561.667 314.314 562.717 260.832 571.373"/><polygon class="cls-5" points="260.436 570.835 261.34 570.822 261.915 626.286 261.011 626.299 260.436 570.835"/><polygon class="cls-5" points="255.17 567.536 246.89 563.808 296.584 554.517 304.865 558.244 255.17 567.536"/><polygon class="cls-5" points="232.072 573.319 232.429 572.345 244.402 578.393 244.045 579.367 232.072 573.319"/><polygon class="cls-3" points="237.494 590.813 237.851 589.839 249.824 595.887 249.466 596.861 237.494 590.813"/><path id="af1e2e82-f248-43bd-a869-489ddf745161" class="cls-7" d="M339.33145,497.345a5.75639,5.75639,0,0,0,2.181-7.08787,5.612,5.612,0,0,0-.40221-.81094l5.53164-10.30252-4.51557-5.47118L334.48848,488.35a6.0113,6.0113,0,0,0-.66783,7.53608,4.137,4.137,0,0,0,5.5108,1.45946Z"/><path id="ed6195a6-5e50-4e12-8380-54bfefa6b2ae" class="cls-5" d="M366.193,432.64883l-3.963-3.064s-3.05833.80464-6.31087,8.14542-16.36924,40.15994-16.36924,40.15994l5.39168,6.42131,14.38363-25.7472Z"/><path class="cls-3" d="M30.76221,68.94482,34.2998,64.793a16.55384,16.55384,0,0,0,11.228,4.6582c4.97412,0,7.73584-2.28857,7.73584-5.45166,0-3.84131-2.86963-4.90674-6.76221-6.55322l-5.543-2.43018C36.94678,53.43359,32.544,50.52832,32.544,44.74219c0-6.123,5.51171-10.75342,13.269-10.75342A17.63665,17.63665,0,0,1,58.15625,38.916L55.0459,42.76074a13.85856,13.85856,0,0,0-9.49121-3.50342c-4.13428,0-6.91406,1.91358-6.91406,5.12891,0,3.41016,3.39062,4.65576,6.85156,5.998l5.3291,2.34765c4.92725,1.91993,8.61035,4.792,8.61035,10.53321,0,6.30713-5.32471,11.45459-14.2334,11.45459A20.65226,20.65226,0,0,1,30.76221,68.94482Z"/><path class="cls-3" d="M89.4917,34.709h7.01416L109.48535,74h-6.43017L96.72363,52.60107c-1.27929-4.25683-2.56592-8.64355-3.69824-13.09179h-.24023c-1.18164,4.44824-2.39649,8.835-3.67578,13.09179L82.68018,74h-6.168ZM83.80078,57.936h18.227v4.80761h-18.227Z"/><path class="cls-3" d="M128.47949,34.709h12.71387c8.0581,0,14.13574,2.87989,14.13574,11.3794,0,8.15088-6.07764,11.95312-14.13574,11.95312h-6.63965V74h-6.07422ZM140.47363,53.2002c5.73877,0,8.87451-2.38575,8.87451-7.11182,0-4.82373-3.13574-6.53809-8.87451-6.53809h-5.91992V53.2002Zm4.063-.209L156.65918,74h-6.78613L140.0166,56.415Z"/><path class="cls-3" d="M173.09277,34.709H179.523l5.88525,20.45508c1.32422,4.52979,2.23926,8.35449,3.61182,12.84717h.24023c1.37256-4.49268,2.34766-8.31738,3.61182-12.84717L198.73486,34.709h6.168L192.60254,74h-7.11182Z"/><path class="cls-3" d="M223.50244,34.709h6.07471V50.78955h14.84033V34.709h6.07471V74h-6.07471v-17.919H229.57715V74h-6.07471Z"/><path class="cls-3" d="M28.73633,114.25h3.49951c4.09326,0,6.43359,2.3584,6.43359,6.812,0,4.4707-2.34033,6.938-6.32617,6.938H28.73633Zm3.36181,12.03076c2.86963,0,4.396-1.78808,4.396-5.21875,0-3.41357-1.52637-5.09277-4.396-5.09277H30.84521v10.31152Z"/><path class="cls-3" d="M46.01367,119.41016H41.42676v-1.669H48.105V128H46.01367Zm-.68115-5.16211a1.55952,1.55952,0,0,1,3.11621,0,1.55991,1.55991,0,0,1-3.11621,0Z"/><path class="cls-3" d="M53.59229,126.65625l.93115-1.35449A7.43993,7.43993,0,0,0,58.895,126.648c1.57275,0,2.32617-.62744,2.32617-1.39795,0-.72607-.42627-1.18555-3.00976-1.71729-2.70948-.56152-3.98145-1.5-3.98145-3.05224,0-1.71582,1.543-2.99121,4.38232-2.99121a7.86442,7.86442,0,0,1,4.21729,1.333l-.981,1.30468a6.18819,6.18819,0,0,0-3.41845-1.05127c-1.52588,0-2.11622.603-2.11622,1.30518,0,.80371.81885,1.11865,2.83252,1.54785,3.33692.731,4.17579,1.59033,4.17579,3.19629,0,1.71777-1.66407,3.12695-4.69239,3.12695A9.15027,9.15027,0,0,1,53.59229,126.65625Z"/><path class="cls-3" d="M66.4082,122.8877c0-3.43409,2.65869-5.39844,5.77637-5.39844a5.29826,5.29826,0,0,1,3.76318,1.4707l-1.00586,1.3208a4.10331,4.10331,0,0,0-2.667-1.07226,3.51128,3.51128,0,0,0-3.7251,3.6792,3.46706,3.46706,0,0,0,3.66749,3.645,4.81723,4.81723,0,0,0,3.04345-1.206l.89844,1.34522a6.2552,6.2552,0,0,1-4.11084,1.58007C68.8335,128.252,66.4082,126.2876,66.4082,122.8877Z"/><path class="cls-3" d="M78.58887,122.8877a5.11543,5.11543,0,1,1,5.10937,5.36425A5.05807,5.05807,0,0,1,78.58887,122.8877Zm8.07763,0c0-2.21045-1.15283-3.6792-2.96826-3.6792S80.73,120.67725,80.73,122.8877c0,2.19335,1.15283,3.645,2.96826,3.645S86.6665,125.08105,86.6665,122.8877Z"/><path class="cls-3" d="M90.94678,117.74121h2.126l2.167,5.55029c.3833,1.03272.73779,2.05616,1.083,3.07032h.084c.34521-1.01416.66553-2.0376,1.06592-3.07032l2.167-5.55029h2.00928L97.51758,128H95.15332Z"/><path class="cls-3" d="M103.95605,122.85352a5.17736,5.17736,0,0,1,5.26172-5.36426c3.00977,0,4.72364,1.977,4.72364,4.84179a7.606,7.606,0,0,1-.09571,1.13624h-8.44091v-1.53223h7.13769l-.45264.51025c0-2.22217-1.07519-3.33691-2.81445-3.33691-1.79541,0-3.26855,1.32617-3.26855,3.74512a3.46575,3.46575,0,0,0,3.78515,3.76171,5.58467,5.58467,0,0,0,2.99805-.90283l.73144,1.32178a7.24889,7.24889,0,0,1-3.99414,1.21777C106.415,128.252,103.95605,126.27051,103.95605,122.85352Z"/><path class="cls-3" d="M118.08252,117.74121h1.731l.1875,2.37891h.0498a5.23774,5.23774,0,0,1,4.46973-2.63086,4.29316,4.29316,0,0,1,2.01172.41992l-.45752,1.77686a5.18355,5.18355,0,0,0-1.87793-.32813c-1.46973,0-2.88721.74951-4.023,2.82031V128h-2.09131Z"/><path class="cls-3" d="M144.55127,123.94141v-4.53125h-2.82715V117.8501l2.90967-.10889.27392-3.25195h1.73487v3.25195h4.84033v1.669h-4.84033v4.53662c0,1.76416.62451,2.61865,2.481,2.61865a6.55531,6.55531,0,0,0,2.3374-.43848l.4248,1.52784a9.46579,9.46579,0,0,1-3.24609.59716C145.57178,128.252,144.55127,126.51611,144.55127,123.94141Z"/><path class="cls-3" d="M154.83691,113.11328h2.0918v3.94824l-.12451,2.3086h.06689a4.9927,4.9927,0,0,1,3.71-1.88086c2.395,0,3.48829,1.47461,3.48829,4.14648V128h-2.0918v-6.09033c0-1.79053-.60108-2.61865-2.12256-2.61865-1.11621,0-1.86816.5498-2.92627,1.63427V128h-2.0918Z"/><path class="cls-3" d="M166.95508,122.85352a5.17735,5.17735,0,0,1,5.26172-5.36426c3.00976,0,4.72363,1.977,4.72363,4.84179a7.60749,7.60749,0,0,1-.0957,1.13624h-8.44092v-1.53223h7.13769l-.45263.51025c0-2.22217-1.0752-3.33691-2.81446-3.33691-1.79541,0-3.26855,1.32617-3.26855,3.74512a3.46575,3.46575,0,0,0,3.78516,3.76171,5.58464,5.58464,0,0,0,2.998-.90283l.73145,1.32178a7.24894,7.24894,0,0,1-3.99414,1.21777C169.41406,128.252,166.95508,126.27051,166.95508,122.85352Z"/><path class="cls-3" d="M192.84619,117.8501l2.93311-.10889h6.10254v1.669h-9.03565Zm2.87549-.8169c0-2.4541,1.3252-4.17187,4.25635-4.17187a8.11039,8.11039,0,0,1,2.99414.58008l-.44971,1.55273a5.62354,5.62354,0,0,0-2.32178-.46338,2.14527,2.14527,0,0,0-2.40478,2.45117V128h-2.07422Z"/><path class="cls-3" d="M204.9751,125.292c0-2.30078,2.08691-3.4331,7.2666-3.82129a2.26005,2.26005,0,0,0-2.5791-2.28711,7.1556,7.1556,0,0,0-3.46729,1.15479l-.79883-1.395a9.21714,9.21714,0,0,1,4.63868-1.4541c2.82763,0,4.29834,1.623,4.29834,4.33252V128h-1.727l-.16651-1.33105h-.06689a6.73384,6.73384,0,0,1-3.92823,1.583C206.4834,128.252,204.9751,127.09863,204.9751,125.292Zm7.2666-.08008v-2.40234c-4.02979.28906-5.22315,1.09863-5.22315,2.32471,0,1.02929.92432,1.456,2.02149,1.456A5.14985,5.14985,0,0,0,212.2417,125.21191Z"/><path class="cls-3" d="M217.38965,126.65625l.93115-1.35449a7.44,7.44,0,0,0,4.37158,1.34619c1.57276,0,2.32617-.62744,2.32617-1.39795,0-.72607-.42626-1.18555-3.00976-1.71729-2.70947-.56152-3.98145-1.5-3.98145-3.05224,0-1.71582,1.543-2.99121,4.38233-2.99121a7.86441,7.86441,0,0,1,4.21728,1.333l-.981,1.30468a6.18822,6.18822,0,0,0-3.41846-1.05127c-1.52539,0-2.11621.603-2.11621,1.30518,0,.80371.81885,1.11865,2.83252,1.54785,3.33691.731,4.17578,1.59033,4.17578,3.19629,0,1.71777-1.66406,3.12695-4.69238,3.12695A9.15028,9.15028,0,0,1,217.38965,126.65625Z"/><path class="cls-3" d="M230.43555,113.11328h2.09179v3.94824l-.12451,2.3086h.0669a4.99268,4.99268,0,0,1,3.71-1.88086c2.395,0,3.48828,1.47461,3.48828,4.14648V128h-2.0918v-6.09033c0-1.79053-.60107-2.61865-2.12256-2.61865-1.11621,0-1.86816.5498-2.92627,1.63427V128h-2.09179Z"/><path class="cls-3" d="M247.61084,119.41016h-4.58691v-1.669h6.67822V128h-2.09131Zm-.68115-5.16211a1.55952,1.55952,0,0,1,3.11621,0,1.55991,1.55991,0,0,1-3.11621,0Z"/><path class="cls-3" d="M254.98535,122.8877a5.1159,5.1159,0,1,1,5.10986,5.36425A5.05844,5.05844,0,0,1,254.98535,122.8877Zm8.07813,0c0-2.21045-1.15284-3.6792-2.96827-3.6792s-2.96826,1.46875-2.96826,3.6792c0,2.19335,1.15284,3.645,2.96826,3.645S263.06348,125.08105,263.06348,122.8877Z"/><path class="cls-3" d="M268.23535,117.74121h1.71l.16651,1.63525h.084a5.21613,5.21613,0,0,1,3.77979-1.8872c2.39892,0,3.49218,1.47461,3.49218,4.14648V128H275.376v-6.09033c0-1.79053-.60108-2.61865-2.12256-2.61865-1.11621,0-1.86817.5498-2.92627,1.63427V128h-2.0918Z"/><path class="cls-3" d="M31.15283,149.1416v-4.53125H28.32568v-1.56006l2.90967-.10888.27393-3.252h1.73486v3.252h4.84033v1.66894H33.24414V149.147c0,1.76416.62451,2.61866,2.481,2.61866a6.55549,6.55549,0,0,0,2.3374-.43848l.4248,1.52783a9.46568,9.46568,0,0,1-3.24609.59717C32.17334,153.45215,31.15283,151.71631,31.15283,149.1416Z"/><path class="cls-3" d="M42.4834,142.94141h1.731l.1875,2.3789h.0498a5.23774,5.23774,0,0,1,4.46973-2.63086,4.293,4.293,0,0,1,2.01172.41993l-.45752,1.77685a5.18376,5.18376,0,0,0-1.87793-.32812c-1.46973,0-2.88721.74951-4.02295,2.82031v5.82178H42.4834Z"/><path class="cls-3" d="M53.55664,148.05371a5.17774,5.17774,0,0,1,5.26221-5.36426c3.00976,0,4.72363,1.97705,4.72363,4.8418a7.60734,7.60734,0,0,1-.0957,1.13623H55.00586v-1.53223h7.13769l-.45263.51026c0-2.22217-1.0752-3.33692-2.81446-3.33692-1.79541,0-3.26855,1.32618-3.26855,3.74512a3.46576,3.46576,0,0,0,3.78516,3.76172,5.58461,5.58461,0,0,0,2.998-.90283l.73145,1.32178a7.24894,7.24894,0,0,1-3.99414,1.21777C56.01611,153.45215,53.55664,151.4707,53.55664,148.05371Z"/><path class="cls-3" d="M66.63818,142.94141h1.71l.16651,1.63525h.084a5.2161,5.2161,0,0,1,3.77979-1.88721c2.39892,0,3.49219,1.47461,3.49219,4.14649v6.36426h-2.0918v-6.09034c0-1.79052-.60108-2.61865-2.12256-2.61865-1.11621,0-1.86816.54981-2.92627,1.63428v7.07471h-2.0918Z"/><path class="cls-3" d="M78.58887,148.08789c0-3.34082,2.20019-5.39844,4.57568-5.39844a4.13,4.13,0,0,1,2.95166,1.2544H86.166l-.09961-1.80176v-3.82861H88.1582V153.2002h-1.71l-.1665-1.27344h-.0669a4.75766,4.75766,0,0,1-3.22119,1.52539C80.34424,153.45215,78.58887,151.48926,78.58887,148.08789Zm7.47754,2.24951v-4.85351a3.43437,3.43437,0,0,0-2.42725-1.0503c-1.59912,0-2.90918,1.38868-2.90918,3.6294,0,2.33349,1.03565,3.645,2.74756,3.645A3.40208,3.40208,0,0,0,86.06641,150.3374Z"/><path class="cls-3" d="M96.41309,144.61035H91.82617v-1.66894h6.67822V153.2002h-2.0913Zm-.68116-5.16211a1.55952,1.55952,0,0,1,3.11621,0,1.55991,1.55991,0,0,1-3.11621,0Z"/><path class="cls-3" d="M104.4375,142.94141h1.71l.1665,1.63525h.084a5.2161,5.2161,0,0,1,3.77978-1.88721c2.39893,0,3.49219,1.47461,3.49219,4.14649v6.36426h-2.09179v-6.09034c0-1.79052-.60108-2.61865-2.12256-2.61865-1.11621,0-1.86817.54981-2.92627,1.63428v7.07471h-2.0918Z"/><path class="cls-3" d="M116.26074,146.34473c0-4.48243,2.603-7.14649,6.16846-7.14649a5.15976,5.15976,0,0,1,3.85107,1.69531l-1.188,1.32081a3.42124,3.42124,0,0,0-2.66309-1.17237c-2.37842,0-3.97217,1.999-3.97217,5.24512,0,3.2959,1.42285,5.32129,3.97315,5.32129a3.08611,3.08611,0,0,0,2.10205-.6958v-3.273h-2.53711v-1.727h4.46924v5.92822a5.98007,5.98007,0,0,1-4.1587,1.61133C118.8335,153.45215,116.26074,150.86914,116.26074,146.34473Z"/><path class="cls-3" d="M144.55127,149.1416v-4.53125h-2.82715v-1.56006l2.90967-.10888.27392-3.252h1.73487v3.252h4.84033v1.66894h-4.84033V149.147c0,1.76416.62451,2.61866,2.481,2.61866a6.55553,6.55553,0,0,0,2.3374-.43848l.4248,1.52783a9.46578,9.46578,0,0,1-3.24609.59717C145.57178,153.45215,144.55127,151.71631,144.55127,149.1416Z"/><path class="cls-3" d="M154.1875,148.08789a5.11543,5.11543,0,1,1,5.10938,5.36426A5.05808,5.05808,0,0,1,154.1875,148.08789Zm8.07764,0c0-2.21045-1.15284-3.6792-2.96826-3.6792s-2.96827,1.46875-2.96827,3.6792c0,2.19336,1.15284,3.645,2.96827,3.645S162.26514,150.28125,162.26514,148.08789Z"/><path class="cls-3" d="M166.78711,148.08789c0-3.34082,2.20019-5.39844,4.57568-5.39844a4.13,4.13,0,0,1,2.95166,1.2544h.04981l-.09961-1.80176v-3.82861h2.0918V153.2002h-1.71l-.1665-1.27344h-.06689a4.75769,4.75769,0,0,1-3.2212,1.52539C168.54248,153.45215,166.78711,151.48926,166.78711,148.08789Zm7.47754,2.24951v-4.85351a3.43436,3.43436,0,0,0-2.42725-1.0503c-1.59912,0-2.90918,1.38868-2.90918,3.6294,0,2.33349,1.03565,3.645,2.74756,3.645A3.40208,3.40208,0,0,0,174.26465,150.3374Z"/><path class="cls-3" d="M179.77539,150.49219c0-2.30078,2.08691-3.43311,7.2666-3.82129a2.26,2.26,0,0,0-2.5791-2.28711,7.15556,7.15556,0,0,0-3.46728,1.15478l-.79883-1.395a9.2172,9.2172,0,0,1,4.63867-1.4541c2.82764,0,4.29834,1.62305,4.29834,4.33252v6.17823h-1.727l-.16651-1.33106h-.06689a6.73378,6.73378,0,0,1-3.92822,1.583C181.28369,153.45215,179.77539,152.29883,179.77539,150.49219Zm7.2666-.08008v-2.40234c-4.02978.28906-5.22314,1.09863-5.22314,2.3247,0,1.0293.92431,1.45606,2.02148,1.45606A5.14985,5.14985,0,0,0,187.042,150.41211Z"/><path class="cls-3" d="M192.2041,157.2959l.40772-1.63623a3.14346,3.14346,0,0,0,.89257.14306,2.73475,2.73475,0,0,0,2.63575-1.95507l.2705-.70118L191.728,142.94141h2.10107l2.28906,5.3291c.39112.92236.80469,1.98926,1.20118,3.00342h.084c.3374-.98536.72461-2.05616,1.05664-3.00342l2.02783-5.3291h2.00147l-4.40869,10.91064c-.82227,2.16846-2.061,3.65381-4.47022,3.65381A4.67862,4.67862,0,0,1,192.2041,157.2959Z"/><path class="cls-3" d="M207.80371,151.49121a1.89377,1.89377,0,1,1,1.89258,1.96094A1.8797,1.8797,0,0,1,207.80371,151.49121Z"/><path class="cls-3" d="M28.48926,180.2085h3.001c3.50977,0,5.51709,2.023,5.51709,5.84179C37.00732,189.88379,35,192,31.582,192H28.48926Zm2.88281,10.31738c2.46094,0,3.76953-1.53369,3.76953-4.47559,0-2.92724-1.30859-4.36718-3.76953-4.36718H30.29736v8.84277Z"/><path class="cls-3" d="M43.30029,184.63379H39.3667v-1.43164h5.727V192H43.30029Zm-.58447-4.42725a1.33768,1.33768,0,0,1,2.67285,0,1.338,1.338,0,0,1-2.67285,0Z"/><path class="cls-3" d="M49.794,190.84766l.79834-1.16162a6.38271,6.38271,0,0,0,3.749,1.15478c1.34863,0,1.99463-.53857,1.99463-1.19922,0-.62256-.36524-1.0166-2.58057-1.47265-2.32373-.48145-3.41455-1.28614-3.41455-2.61719,0-1.47168,1.32324-2.56543,3.7583-2.56543a6.74323,6.74323,0,0,1,3.61621,1.14306l-.84131,1.11915a5.30666,5.30666,0,0,0-2.93115-.90137c-1.30859,0-1.81494.5166-1.81494,1.11914,0,.689.70215.959,2.42871,1.32715,2.86182.62695,3.58106,1.36377,3.58106,2.74121,0,1.47265-1.42676,2.68115-4.02344,2.68115A7.84487,7.84487,0,0,1,49.794,190.84766Z"/><path class="cls-3" d="M60.7793,187.61572c0-2.94482,2.27978-4.62939,4.95361-4.62939a4.544,4.544,0,0,1,3.227,1.26172l-.8623,1.13232a3.52228,3.52228,0,0,0-2.2876-.91992,3.01124,3.01124,0,0,0-3.19434,3.15527,2.97332,2.97332,0,0,0,3.145,3.126,4.13246,4.13246,0,0,0,2.61035-1.03418l.77,1.15381a5.3651,5.3651,0,0,1-3.52539,1.35449C62.85889,192.21582,60.7793,190.53125,60.7793,187.61572Z"/><path class="cls-3" d="M71.21924,187.61572a4.38678,4.38678,0,1,1,4.38135,4.6001A4.33752,4.33752,0,0,1,71.21924,187.61572Zm6.92724,0c0-1.89551-.98877-3.15527-2.54589-3.15527-1.55664,0-2.54541,1.25976-2.54541,3.15527,0,1.88086.98877,3.126,2.54541,3.126C77.15771,190.7417,78.14648,189.49658,78.14648,187.61572Z"/><path class="cls-3" d="M81.812,183.20215h1.82276l1.85839,4.76025c.32911.88526.63282,1.76319.92872,2.63281h.07226c.2959-.86962.57031-1.74755.91406-2.63281l1.8584-4.76025h1.72266L87.44629,192H85.419Z"/><path class="cls-3" d="M92.96289,187.58643a4.44,4.44,0,0,1,4.51221-4.6001,3.81621,3.81621,0,0,1,4.05078,4.15234,6.5076,6.5076,0,0,1-.082.97412H94.20508v-1.314h6.12109l-.38818.438c0-1.90577-.92188-2.86182-2.41358-2.86182-1.53955,0-2.80273,1.13721-2.80273,3.21143a2.97224,2.97224,0,0,0,3.24609,3.22607,4.78859,4.78859,0,0,0,2.5708-.77441l.62745,1.13379a6.21863,6.21863,0,0,1-3.4253,1.04394A4.46607,4.46607,0,0,1,92.96289,187.58643Z"/><path class="cls-3" d="M105.07178,183.20215h1.48437l.16065,2.04053h.043a4.49147,4.49147,0,0,1,3.833-2.25635,3.68516,3.68516,0,0,1,1.7251.35986l-.39258,1.52393a4.44221,4.44221,0,0,0-1.61035-.28125c-1.26074,0-2.47607.64258-3.44971,2.41845V192h-1.79345Z"/><path class="cls-3" d="M117.17676,190.53418a1.6243,1.6243,0,1,1,1.623,1.68164A1.61238,1.61238,0,0,1,117.17676,190.53418Z"/><path class="cls-3" d="M136.12744,190.48291l1.06152-1.24609a4.96705,4.96705,0,0,0,3.36963,1.398c1.49317,0,2.32178-.68653,2.32178-1.63575,0-1.15283-.86133-1.47265-2.0293-1.96679l-1.66357-.7295a3.379,3.379,0,0,1-2.52539-3.083c0-1.83741,1.6543-3.227,3.98242-3.227a5.29224,5.29224,0,0,1,3.7041,1.47851L143.415,182.625a4.15872,4.15872,0,0,0-2.84815-1.05127c-1.24072,0-2.07519.57422-2.07519,1.53906,0,1.02344,1.01758,1.397,2.05615,1.8003l1.59961.70459c1.47852.57617,2.584,1.438,2.584,3.16064,0,1.89307-1.59815,3.4375-4.27149,3.4375A6.199,6.199,0,0,1,136.12744,190.48291Z"/><path class="cls-3" d="M146.9624,187.58643a4.44,4.44,0,0,1,4.51221-4.6001,3.81621,3.81621,0,0,1,4.05078,4.15234,6.5076,6.5076,0,0,1-.082.97412h-7.23877v-1.314h6.12109l-.38818.438c0-1.90577-.92187-2.86182-2.41357-2.86182-1.53955,0-2.80274,1.13721-2.80274,3.21143a2.97224,2.97224,0,0,0,3.2461,3.22607,4.78861,4.78861,0,0,0,2.5708-.77441l.62744,1.13379a6.21863,6.21863,0,0,1-3.4253,1.04394A4.46607,4.46607,0,0,1,146.9624,187.58643Z"/><path class="cls-3" d="M160.83936,188.92041v-8.25488h-3.023v-1.43164h4.8164v9.79492a1.51382,1.51382,0,0,0,1.65821,1.71289,3.91486,3.91486,0,0,0,1.57421-.36914l.43213,1.33154a5.802,5.802,0,0,1-2.4248.51172C161.90234,192.21582,160.83936,191.0415,160.83936,188.92041Z"/><path class="cls-3" d="M171.63916,188.92041v-8.25488h-3.023v-1.43164h4.81641v9.79492a1.51382,1.51382,0,0,0,1.6582,1.71289,3.91491,3.91491,0,0,0,1.57422-.36914l.43213,1.33154a5.80207,5.80207,0,0,1-2.42481.51172C172.70215,192.21582,171.63916,191.0415,171.63916,188.92041Z"/><path class="cls-3" d="M181.97607,190.53418a1.62431,1.62431,0,1,1,1.62354,1.68164A1.61249,1.61249,0,0,1,181.97607,190.53418Z"/><path class="cls-3" d="M200.91748,186.12109c0-3.82275,2.27832-6.12841,5.374-6.12841a4.58023,4.58023,0,0,1,3.30811,1.45361l-1.01856,1.13281a3.08637,3.08637,0,0,0-2.28955-1.00537c-2.09912,0-3.50879,1.71436-3.50879,4.498,0,2.82617,1.40967,4.563,3.53565,4.563a3.26021,3.26021,0,0,0,2.50928-1.229l1.01855,1.09619a4.63566,4.63566,0,0,1-3.70556,1.71387C203.22412,192.21582,200.91748,190.001,200.91748,186.12109Z"/><path class="cls-3" d="M211.61719,187.61572a4.38678,4.38678,0,1,1,4.38183,4.6001A4.33761,4.33761,0,0,1,211.61719,187.61572Zm6.92724,0c0-1.89551-.98877-3.15527-2.54541-3.15527-1.55713,0-2.54589,1.25976-2.54589,3.15527,0,1.88086.98876,3.126,2.54589,3.126C217.55566,190.7417,218.54443,189.49658,218.54443,187.61572Z"/><path class="cls-3" d="M222.97412,183.20215h1.46631l.14258,1.40283h.07226a4.47363,4.47363,0,0,1,3.24121-1.61865c2.05713,0,2.99463,1.26465,2.99463,3.55566V192h-1.79345v-5.22266c0-1.53564-.51563-2.24609-1.8208-2.24609a3.417,3.417,0,0,0-2.50928,1.40186V192h-1.79346Z"/><path class="cls-3" d="M233.77393,183.20215h1.4663l.14258,1.40283h.07227a4.47361,4.47361,0,0,1,3.24121-1.61865c2.05713,0,2.99463,1.26465,2.99463,3.55566V192h-1.79346v-5.22266c0-1.53564-.51562-2.24609-1.8208-2.24609a3.417,3.417,0,0,0-2.50928,1.40186V192h-1.79345Z"/><path class="cls-3" d="M244.16064,187.58643a4.44,4.44,0,0,1,4.51221-4.6001,3.81621,3.81621,0,0,1,4.05078,4.15234,6.5076,6.5076,0,0,1-.082.97412h-7.23877v-1.314h6.1211l-.38819.438c0-1.90577-.92187-2.86182-2.41357-2.86182-1.53955,0-2.80274,1.13721-2.80274,3.21143a2.97224,2.97224,0,0,0,3.2461,3.22607,4.78861,4.78861,0,0,0,2.5708-.77441l.62744,1.13379a6.21862,6.21862,0,0,1-3.42529,1.04394A4.46608,4.46608,0,0,1,244.16064,187.58643Z"/><path class="cls-3" d="M255.17627,187.61572c0-2.94482,2.27978-4.62939,4.95361-4.62939a4.544,4.544,0,0,1,3.227,1.26172l-.8623,1.13232a3.52228,3.52228,0,0,0-2.2876-.91992,3.01123,3.01123,0,0,0-3.19433,3.15527,2.97332,2.97332,0,0,0,3.145,3.126,4.13251,4.13251,0,0,0,2.61036-1.03418l.77,1.15381a5.36514,5.36514,0,0,1-3.52539,1.35449C257.25586,192.21582,255.17627,190.53125,255.17627,187.61572Z"/><path class="cls-3" d="M268.15723,188.51953v-3.88574H265.7334V183.2959l2.49463-.09375.23535-2.78858h1.48779v2.78858h4.15088v1.43164h-4.15088v3.89062c0,1.5127.53565,2.24561,2.127,2.24561a5.62176,5.62176,0,0,0,2.00488-.376l.36426,1.31006a8.1239,8.1239,0,0,1-2.7837.51172C269.03271,192.21582,268.15723,190.72754,268.15723,188.51953Z"/></g></g></svg>